<mxfile host="Electron" modified="2025-03-07T17:58:24.026Z" agent="Mozilla/5.0 (Windows NT 10.0; Win64; x64) AppleWebKit/537.36 (KHTML, like Gecko) draw.io/21.2.8 Chrome/112.0.5615.165 Electron/24.2.0 Safari/537.36" etag="0-i4XuhL9pnnhVgZBLKm" version="21.2.8" type="device" pages="3">
  <diagram id="C5RBs43oDa-KdzZeNtuy" name="Page-1">
    <mxGraphModel dx="1434" dy="878" grid="1" gridSize="10" guides="1" tooltips="1" connect="1" arrows="1" fold="1" page="1" pageScale="1" pageWidth="827" pageHeight="1169" math="0" shadow="0">
      <root>
        <mxCell id="WIyWlLk6GJQsqaUBKTNV-0" />
        <mxCell id="WIyWlLk6GJQsqaUBKTNV-1" parent="WIyWlLk6GJQsqaUBKTNV-0" />
        <mxCell id="rsj-dJcusWx15Onr3BPW-5" style="edgeStyle=orthogonalEdgeStyle;rounded=0;orthogonalLoop=1;jettySize=auto;html=1;entryX=0.5;entryY=0;entryDx=0;entryDy=0;" parent="WIyWlLk6GJQsqaUBKTNV-1" source="WIyWlLk6GJQsqaUBKTNV-3" target="rsj-dJcusWx15Onr3BPW-3" edge="1">
          <mxGeometry relative="1" as="geometry" />
        </mxCell>
        <mxCell id="WIyWlLk6GJQsqaUBKTNV-3" value="Get Process List from DB&amp;nbsp;" style="rounded=1;whiteSpace=wrap;html=1;fontSize=12;glass=0;strokeWidth=1;shadow=0;" parent="WIyWlLk6GJQsqaUBKTNV-1" vertex="1">
          <mxGeometry x="219" y="120" width="120" height="40" as="geometry" />
        </mxCell>
        <mxCell id="rsj-dJcusWx15Onr3BPW-1" style="edgeStyle=orthogonalEdgeStyle;rounded=0;orthogonalLoop=1;jettySize=auto;html=1;" parent="WIyWlLk6GJQsqaUBKTNV-1" source="rsj-dJcusWx15Onr3BPW-0" target="WIyWlLk6GJQsqaUBKTNV-3" edge="1">
          <mxGeometry relative="1" as="geometry" />
        </mxCell>
        <mxCell id="rsj-dJcusWx15Onr3BPW-0" value="Start" style="ellipse;whiteSpace=wrap;html=1;" parent="WIyWlLk6GJQsqaUBKTNV-1" vertex="1">
          <mxGeometry x="29" y="110" width="90" height="60" as="geometry" />
        </mxCell>
        <mxCell id="rsj-dJcusWx15Onr3BPW-6" style="edgeStyle=orthogonalEdgeStyle;rounded=0;orthogonalLoop=1;jettySize=auto;html=1;" parent="WIyWlLk6GJQsqaUBKTNV-1" source="rsj-dJcusWx15Onr3BPW-3" target="rsj-dJcusWx15Onr3BPW-4" edge="1">
          <mxGeometry relative="1" as="geometry" />
        </mxCell>
        <mxCell id="rsj-dJcusWx15Onr3BPW-3" value="Foreach Process&amp;nbsp;" style="shape=trapezoid;perimeter=trapezoidPerimeter;whiteSpace=wrap;html=1;fixedSize=1;" parent="WIyWlLk6GJQsqaUBKTNV-1" vertex="1">
          <mxGeometry x="219" y="260" width="120" height="60" as="geometry" />
        </mxCell>
        <mxCell id="rsj-dJcusWx15Onr3BPW-9" style="edgeStyle=orthogonalEdgeStyle;rounded=0;orthogonalLoop=1;jettySize=auto;html=1;" parent="WIyWlLk6GJQsqaUBKTNV-1" source="rsj-dJcusWx15Onr3BPW-4" target="rsj-dJcusWx15Onr3BPW-8" edge="1">
          <mxGeometry relative="1" as="geometry" />
        </mxCell>
        <mxCell id="rsj-dJcusWx15Onr3BPW-4" value="Get&amp;nbsp; Json of ADD and Json Delete" style="rounded=1;whiteSpace=wrap;html=1;" parent="WIyWlLk6GJQsqaUBKTNV-1" vertex="1">
          <mxGeometry x="219" y="370" width="120" height="60" as="geometry" />
        </mxCell>
        <mxCell id="rsj-dJcusWx15Onr3BPW-14" value="Success" style="edgeStyle=orthogonalEdgeStyle;rounded=0;orthogonalLoop=1;jettySize=auto;html=1;" parent="WIyWlLk6GJQsqaUBKTNV-1" source="rsj-dJcusWx15Onr3BPW-8" target="rsj-dJcusWx15Onr3BPW-12" edge="1">
          <mxGeometry relative="1" as="geometry" />
        </mxCell>
        <mxCell id="rsj-dJcusWx15Onr3BPW-26" value="Fail" style="edgeStyle=orthogonalEdgeStyle;rounded=0;orthogonalLoop=1;jettySize=auto;html=1;entryX=0;entryY=0.5;entryDx=0;entryDy=0;" parent="WIyWlLk6GJQsqaUBKTNV-1" source="rsj-dJcusWx15Onr3BPW-8" target="rsj-dJcusWx15Onr3BPW-10" edge="1">
          <mxGeometry relative="1" as="geometry" />
        </mxCell>
        <mxCell id="rsj-dJcusWx15Onr3BPW-8" value="Bulk Insert ADD_Json ; Delete_JSON&amp;nbsp; To AS400" style="rhombus;whiteSpace=wrap;html=1;" parent="WIyWlLk6GJQsqaUBKTNV-1" vertex="1">
          <mxGeometry x="121.5" y="470" width="315" height="140" as="geometry" />
        </mxCell>
        <mxCell id="rsj-dJcusWx15Onr3BPW-10" value="RollBack AS400 insertion" style="rounded=1;whiteSpace=wrap;html=1;" parent="WIyWlLk6GJQsqaUBKTNV-1" vertex="1">
          <mxGeometry x="569" y="510" width="120" height="60" as="geometry" />
        </mxCell>
        <mxCell id="rsj-dJcusWx15Onr3BPW-23" value="Success" style="edgeStyle=orthogonalEdgeStyle;rounded=0;orthogonalLoop=1;jettySize=auto;html=1;" parent="WIyWlLk6GJQsqaUBKTNV-1" source="rsj-dJcusWx15Onr3BPW-12" target="rsj-dJcusWx15Onr3BPW-21" edge="1">
          <mxGeometry relative="1" as="geometry" />
        </mxCell>
        <mxCell id="rsj-dJcusWx15Onr3BPW-25" value="Fail" style="edgeStyle=orthogonalEdgeStyle;rounded=0;orthogonalLoop=1;jettySize=auto;html=1;entryX=0;entryY=0.5;entryDx=0;entryDy=0;" parent="WIyWlLk6GJQsqaUBKTNV-1" source="rsj-dJcusWx15Onr3BPW-12" target="rsj-dJcusWx15Onr3BPW-15" edge="1">
          <mxGeometry relative="1" as="geometry" />
        </mxCell>
        <mxCell id="rsj-dJcusWx15Onr3BPW-12" value="Bulk Insert ADD_Json ; Delete_JSON&amp;nbsp; To SQL&amp;nbsp;" style="rhombus;whiteSpace=wrap;html=1;" parent="WIyWlLk6GJQsqaUBKTNV-1" vertex="1">
          <mxGeometry x="69" y="690" width="420" height="130" as="geometry" />
        </mxCell>
        <mxCell id="rsj-dJcusWx15Onr3BPW-15" value="RollBack AS400 insertion&lt;br&gt;Rooback SQL insertion" style="rounded=1;whiteSpace=wrap;html=1;" parent="WIyWlLk6GJQsqaUBKTNV-1" vertex="1">
          <mxGeometry x="544" y="685" width="170" height="140" as="geometry" />
        </mxCell>
        <mxCell id="rsj-dJcusWx15Onr3BPW-24" value="Fail" style="edgeStyle=orthogonalEdgeStyle;rounded=0;orthogonalLoop=1;jettySize=auto;html=1;" parent="WIyWlLk6GJQsqaUBKTNV-1" source="rsj-dJcusWx15Onr3BPW-21" target="rsj-dJcusWx15Onr3BPW-22" edge="1">
          <mxGeometry relative="1" as="geometry" />
        </mxCell>
        <mxCell id="rsj-dJcusWx15Onr3BPW-28" style="edgeStyle=orthogonalEdgeStyle;rounded=0;orthogonalLoop=1;jettySize=auto;html=1;" parent="WIyWlLk6GJQsqaUBKTNV-1" source="rsj-dJcusWx15Onr3BPW-21" target="rsj-dJcusWx15Onr3BPW-27" edge="1">
          <mxGeometry relative="1" as="geometry" />
        </mxCell>
        <mxCell id="rsj-dJcusWx15Onr3BPW-29" style="edgeStyle=orthogonalEdgeStyle;rounded=0;orthogonalLoop=1;jettySize=auto;html=1;exitX=0;exitY=0.5;exitDx=0;exitDy=0;entryX=0;entryY=0.25;entryDx=0;entryDy=0;" parent="WIyWlLk6GJQsqaUBKTNV-1" source="rsj-dJcusWx15Onr3BPW-21" target="rsj-dJcusWx15Onr3BPW-3" edge="1">
          <mxGeometry relative="1" as="geometry">
            <mxPoint x="49" y="280" as="targetPoint" />
            <Array as="points">
              <mxPoint x="49" y="945" />
              <mxPoint x="49" y="279" />
            </Array>
          </mxGeometry>
        </mxCell>
        <mxCell id="rsj-dJcusWx15Onr3BPW-21" value="Create SAP-A, SAP-D File&amp;nbsp;" style="rhombus;whiteSpace=wrap;html=1;" parent="WIyWlLk6GJQsqaUBKTNV-1" vertex="1">
          <mxGeometry x="69" y="880" width="420" height="130" as="geometry" />
        </mxCell>
        <mxCell id="rsj-dJcusWx15Onr3BPW-30" style="edgeStyle=orthogonalEdgeStyle;rounded=0;orthogonalLoop=1;jettySize=auto;html=1;entryX=1;entryY=0.25;entryDx=0;entryDy=0;" parent="WIyWlLk6GJQsqaUBKTNV-1" source="rsj-dJcusWx15Onr3BPW-22" target="rsj-dJcusWx15Onr3BPW-3" edge="1">
          <mxGeometry relative="1" as="geometry">
            <mxPoint x="789" y="290" as="targetPoint" />
            <Array as="points">
              <mxPoint x="799" y="945" />
              <mxPoint x="799" y="279" />
            </Array>
          </mxGeometry>
        </mxCell>
        <mxCell id="rsj-dJcusWx15Onr3BPW-22" value="RollBack AS400 insertion&lt;br&gt;Rooback SQL insertion&lt;br&gt;Delete SAP-A,SAP-D file" style="rounded=1;whiteSpace=wrap;html=1;" parent="WIyWlLk6GJQsqaUBKTNV-1" vertex="1">
          <mxGeometry x="549" y="875" width="170" height="140" as="geometry" />
        </mxCell>
        <mxCell id="rsj-dJcusWx15Onr3BPW-34" style="edgeStyle=orthogonalEdgeStyle;rounded=0;orthogonalLoop=1;jettySize=auto;html=1;entryX=0;entryY=0.5;entryDx=0;entryDy=0;" parent="WIyWlLk6GJQsqaUBKTNV-1" source="rsj-dJcusWx15Onr3BPW-27" target="rsj-dJcusWx15Onr3BPW-31" edge="1">
          <mxGeometry relative="1" as="geometry" />
        </mxCell>
        <mxCell id="rsj-dJcusWx15Onr3BPW-27" value="Update Processed Flag in SQL Server" style="rounded=1;whiteSpace=wrap;html=1;" parent="WIyWlLk6GJQsqaUBKTNV-1" vertex="1">
          <mxGeometry x="219" y="1070" width="120" height="60" as="geometry" />
        </mxCell>
        <mxCell id="rsj-dJcusWx15Onr3BPW-31" value="End" style="ellipse;whiteSpace=wrap;html=1;" parent="WIyWlLk6GJQsqaUBKTNV-1" vertex="1">
          <mxGeometry x="479" y="1070" width="90" height="60" as="geometry" />
        </mxCell>
        <mxCell id="rsj-dJcusWx15Onr3BPW-33" value="&lt;h1&gt;SpeedProcessing Backend Service&lt;/h1&gt;" style="text;html=1;strokeColor=none;fillColor=none;spacing=5;spacingTop=-20;whiteSpace=wrap;overflow=hidden;rounded=0;" parent="WIyWlLk6GJQsqaUBKTNV-1" vertex="1">
          <mxGeometry x="240" y="10" width="520" height="60" as="geometry" />
        </mxCell>
      </root>
    </mxGraphModel>
  </diagram>
  <diagram id="ZgGRaFWhy30YrxrVmBbQ" name="SP SAP Submission Flow">
    <mxGraphModel dx="1434" dy="878" grid="1" gridSize="10" guides="1" tooltips="1" connect="1" arrows="1" fold="1" page="1" pageScale="1" pageWidth="850" pageHeight="1100" math="0" shadow="0">
      <root>
        <mxCell id="0" />
        <mxCell id="1" parent="0" />
        <mxCell id="wKzG85PRElf-mVKnGL2R-1" value="User" style="shape=umlLifeline;perimeter=lifelinePerimeter;whiteSpace=wrap;container=1;dropTarget=0;collapsible=0;recursiveResize=0;outlineConnect=0;portConstraint=eastwest;newEdgeStyle={&quot;edgeStyle&quot;:&quot;elbowEdgeStyle&quot;,&quot;elbow&quot;:&quot;vertical&quot;,&quot;curved&quot;:0,&quot;rounded&quot;:0};size=65;" parent="1" vertex="1">
          <mxGeometry x="130" y="240" width="150" height="524" as="geometry" />
        </mxCell>
        <mxCell id="wKzG85PRElf-mVKnGL2R-2" value="SpeedProcessing" style="shape=umlLifeline;perimeter=lifelinePerimeter;whiteSpace=wrap;container=1;dropTarget=0;collapsible=0;recursiveResize=0;outlineConnect=0;portConstraint=eastwest;newEdgeStyle={&quot;edgeStyle&quot;:&quot;elbowEdgeStyle&quot;,&quot;elbow&quot;:&quot;vertical&quot;,&quot;curved&quot;:0,&quot;rounded&quot;:0};size=65;" parent="1" vertex="1">
          <mxGeometry x="330" y="240" width="150" height="524" as="geometry" />
        </mxCell>
        <mxCell id="wKzG85PRElf-mVKnGL2R-3" value="SQL Server" style="shape=umlLifeline;perimeter=lifelinePerimeter;whiteSpace=wrap;container=1;dropTarget=0;collapsible=0;recursiveResize=0;outlineConnect=0;portConstraint=eastwest;newEdgeStyle={&quot;edgeStyle&quot;:&quot;elbowEdgeStyle&quot;,&quot;elbow&quot;:&quot;vertical&quot;,&quot;curved&quot;:0,&quot;rounded&quot;:0};size=65;" parent="1" vertex="1">
          <mxGeometry x="530" y="240" width="150" height="524" as="geometry" />
        </mxCell>
        <UserObject label="RDD Backend Scheule Job" link="data:page/id,TqVkrk-lFXWwQThB7NYT" id="wKzG85PRElf-mVKnGL2R-4">
          <mxCell style="shape=umlLifeline;perimeter=lifelinePerimeter;whiteSpace=wrap;container=1;dropTarget=0;collapsible=0;recursiveResize=0;outlineConnect=0;portConstraint=eastwest;newEdgeStyle={&quot;edgeStyle&quot;:&quot;elbowEdgeStyle&quot;,&quot;elbow&quot;:&quot;vertical&quot;,&quot;curved&quot;:0,&quot;rounded&quot;:0};size=65;" parent="1" vertex="1">
            <mxGeometry x="758" y="240" width="167" height="524" as="geometry" />
          </mxCell>
        </UserObject>
        <mxCell id="wKzG85PRElf-mVKnGL2R-5" value="SAP API" style="shape=umlLifeline;perimeter=lifelinePerimeter;whiteSpace=wrap;container=1;dropTarget=0;collapsible=0;recursiveResize=0;outlineConnect=0;portConstraint=eastwest;newEdgeStyle={&quot;edgeStyle&quot;:&quot;elbowEdgeStyle&quot;,&quot;elbow&quot;:&quot;vertical&quot;,&quot;curved&quot;:0,&quot;rounded&quot;:0};size=65;" parent="1" vertex="1">
          <mxGeometry x="975" y="240" width="150" height="524" as="geometry" />
        </mxCell>
        <mxCell id="wKzG85PRElf-mVKnGL2R-6" value="EDI Process Folder" style="shape=umlLifeline;perimeter=lifelinePerimeter;whiteSpace=wrap;container=1;dropTarget=0;collapsible=0;recursiveResize=0;outlineConnect=0;portConstraint=eastwest;newEdgeStyle={&quot;edgeStyle&quot;:&quot;elbowEdgeStyle&quot;,&quot;elbow&quot;:&quot;vertical&quot;,&quot;curved&quot;:0,&quot;rounded&quot;:0};size=65;" parent="1" vertex="1">
          <mxGeometry x="1175" y="240" width="150" height="524" as="geometry" />
        </mxCell>
        <mxCell id="wKzG85PRElf-mVKnGL2R-7" value="Submit Changes" style="verticalAlign=bottom;endArrow=block;edgeStyle=elbowEdgeStyle;elbow=vertical;curved=0;rounded=0;" parent="1" source="wKzG85PRElf-mVKnGL2R-1" target="wKzG85PRElf-mVKnGL2R-2" edge="1">
          <mxGeometry relative="1" as="geometry">
            <Array as="points">
              <mxPoint x="315" y="347" />
            </Array>
          </mxGeometry>
        </mxCell>
        <mxCell id="wKzG85PRElf-mVKnGL2R-8" value="Save Changes of TSDR-D  " style="verticalAlign=bottom;endArrow=block;edgeStyle=elbowEdgeStyle;elbow=vertical;curved=0;rounded=0;" parent="1" source="wKzG85PRElf-mVKnGL2R-2" target="wKzG85PRElf-mVKnGL2R-3" edge="1">
          <mxGeometry relative="1" as="geometry">
            <Array as="points">
              <mxPoint x="515" y="399" />
            </Array>
          </mxGeometry>
        </mxCell>
        <mxCell id="wKzG85PRElf-mVKnGL2R-9" value="Changes Available" style="verticalAlign=bottom;endArrow=block;edgeStyle=elbowEdgeStyle;elbow=vertical;curved=0;rounded=0;" parent="1" source="wKzG85PRElf-mVKnGL2R-3" target="wKzG85PRElf-mVKnGL2R-4" edge="1">
          <mxGeometry relative="1" as="geometry">
            <Array as="points">
              <mxPoint x="733" y="451" />
            </Array>
          </mxGeometry>
        </mxCell>
        <mxCell id="wKzG85PRElf-mVKnGL2R-10" value="Consume API with TSDR, ProdCode" style="verticalAlign=bottom;endArrow=block;edgeStyle=elbowEdgeStyle;elbow=vertical;curved=0;rounded=0;" parent="1" source="wKzG85PRElf-mVKnGL2R-4" target="wKzG85PRElf-mVKnGL2R-5" edge="1">
          <mxGeometry relative="1" as="geometry">
            <Array as="points">
              <mxPoint x="956" y="503" />
            </Array>
          </mxGeometry>
        </mxCell>
        <mxCell id="wKzG85PRElf-mVKnGL2R-11" value="Response with List del part , qty" style="verticalAlign=bottom;endArrow=block;edgeStyle=elbowEdgeStyle;elbow=vertical;curved=0;rounded=0;dashed=1;dashPattern=2 3;" parent="1" source="wKzG85PRElf-mVKnGL2R-5" target="wKzG85PRElf-mVKnGL2R-4" edge="1">
          <mxGeometry x="-0.0024" relative="1" as="geometry">
            <Array as="points">
              <mxPoint x="956" y="555" />
            </Array>
            <mxPoint as="offset" />
          </mxGeometry>
        </mxCell>
        <mxCell id="wKzG85PRElf-mVKnGL2R-13" value="Generate {Package}-D.txt Output Files" style="verticalAlign=bottom;endArrow=block;edgeStyle=elbowEdgeStyle;elbow=vertical;curved=0;rounded=0;" parent="1" source="wKzG85PRElf-mVKnGL2R-4" target="wKzG85PRElf-mVKnGL2R-6" edge="1">
          <mxGeometry relative="1" as="geometry">
            <Array as="points">
              <mxPoint x="1056" y="659" />
            </Array>
          </mxGeometry>
        </mxCell>
        <mxCell id="-owJ6Zvg0ksvlKSeFrTr-1" value="&lt;h1&gt;SpeedProcessing SAP Submission Flow&lt;/h1&gt;" style="text;html=1;strokeColor=none;fillColor=none;spacing=5;spacingTop=-20;whiteSpace=wrap;overflow=hidden;rounded=0;" parent="1" vertex="1">
          <mxGeometry x="590" y="80" width="520" height="60" as="geometry" />
        </mxCell>
      </root>
    </mxGraphModel>
  </diagram>
  <diagram id="TqVkrk-lFXWwQThB7NYT" name="RDD SAP Backend Job ">
    <mxGraphModel dx="584" dy="878" grid="1" gridSize="10" guides="1" tooltips="1" connect="1" arrows="1" fold="1" page="1" pageScale="1" pageWidth="850" pageHeight="1100" math="0" shadow="0">
      <root>
        <mxCell id="0" />
        <mxCell id="1" parent="0" />
        <mxCell id="CmKihCirjOIbLul7nWhH-1" value="SQL Server" style="shape=umlLifeline;perimeter=lifelinePerimeter;whiteSpace=wrap;container=1;dropTarget=0;collapsible=0;recursiveResize=0;outlineConnect=0;portConstraint=eastwest;newEdgeStyle={&quot;edgeStyle&quot;:&quot;elbowEdgeStyle&quot;,&quot;elbow&quot;:&quot;vertical&quot;,&quot;curved&quot;:0,&quot;rounded&quot;:0};size=65;" vertex="1" parent="1">
          <mxGeometry x="1082" y="140" width="150" height="998" as="geometry" />
        </mxCell>
        <mxCell id="CmKihCirjOIbLul7nWhH-2" value="SAP API" style="shape=umlLifeline;perimeter=lifelinePerimeter;whiteSpace=wrap;container=1;dropTarget=0;collapsible=0;recursiveResize=0;outlineConnect=0;portConstraint=eastwest;newEdgeStyle={&quot;edgeStyle&quot;:&quot;elbowEdgeStyle&quot;,&quot;elbow&quot;:&quot;vertical&quot;,&quot;curved&quot;:0,&quot;rounded&quot;:0};size=65;" vertex="1" parent="1">
          <mxGeometry x="1499" y="140" width="150" height="998" as="geometry" />
        </mxCell>
        <mxCell id="CmKihCirjOIbLul7nWhH-3" value="Edi Processed Folder" style="shape=umlLifeline;perimeter=lifelinePerimeter;whiteSpace=wrap;container=1;dropTarget=0;collapsible=0;recursiveResize=0;outlineConnect=0;portConstraint=eastwest;newEdgeStyle={&quot;edgeStyle&quot;:&quot;elbowEdgeStyle&quot;,&quot;elbow&quot;:&quot;vertical&quot;,&quot;curved&quot;:0,&quot;rounded&quot;:0};size=65;" vertex="1" parent="1">
          <mxGeometry x="1699" y="140" width="150" height="998" as="geometry" />
        </mxCell>
        <mxCell id="CmKihCirjOIbLul7nWhH-4" value="loop" style="shape=umlFrame;dashed=1;pointerEvents=0;dropTarget=0;strokeColor=#B3B3B3;height=20;width=40" vertex="1" parent="1">
          <mxGeometry x="1147" y="510" width="437" height="98" as="geometry" />
        </mxCell>
        <mxCell id="CmKihCirjOIbLul7nWhH-5" value="[For each pair in the result list]" style="text;strokeColor=none;fillColor=none;align=center;verticalAlign=middle;whiteSpace=wrap;" vertex="1" parent="CmKihCirjOIbLul7nWhH-4">
          <mxGeometry x="40" width="397" height="20" as="geometry" />
        </mxCell>
        <mxCell id="CmKihCirjOIbLul7nWhH-6" value="loop" style="shape=umlFrame;dashed=1;pointerEvents=0;dropTarget=0;strokeColor=#B3B3B3;height=20;width=40" vertex="1" parent="1">
          <mxGeometry x="1648" y="618" width="252" height="343" as="geometry" />
        </mxCell>
        <mxCell id="CmKihCirjOIbLul7nWhH-7" value="[For each pair in the result&#xa;list]" style="text;strokeColor=none;fillColor=none;align=center;verticalAlign=middle;whiteSpace=wrap;" vertex="1" parent="CmKihCirjOIbLul7nWhH-6">
          <mxGeometry x="40" width="212" height="20" as="geometry" />
        </mxCell>
        <mxCell id="CmKihCirjOIbLul7nWhH-8" value="Get unprocessed TSDR SAP ADD and Delete list&#xa;from SpeedProcessing Tables (IsSubmitted flag = 0)" style="curved=1;rounded=0;" edge="1" parent="1" source="CmKihCirjOIbLul7nWhH-1" target="CmKihCirjOIbLul7nWhH-1">
          <mxGeometry relative="1" as="geometry">
            <Array as="points">
              <mxPoint x="1207" y="247" />
              <mxPoint x="1207" y="277" />
            </Array>
          </mxGeometry>
        </mxCell>
        <mxCell id="CmKihCirjOIbLul7nWhH-9" value="[dbo].[SpeedProcessing_SAPAddData] (Add table)" style="curved=1;rounded=0;" edge="1" parent="1" source="CmKihCirjOIbLul7nWhH-1" target="CmKihCirjOIbLul7nWhH-1">
          <mxGeometry relative="1" as="geometry">
            <Array as="points">
              <mxPoint x="1207" y="329" />
              <mxPoint x="1207" y="359" />
            </Array>
          </mxGeometry>
        </mxCell>
        <mxCell id="CmKihCirjOIbLul7nWhH-10" value="[dbo].[SpeedProcessing_SAPDelData] (Delete table)" style="curved=1;rounded=0;" edge="1" parent="1" source="CmKihCirjOIbLul7nWhH-1" target="CmKihCirjOIbLul7nWhH-1">
          <mxGeometry relative="1" as="geometry">
            <Array as="points">
              <mxPoint x="1207" y="411" />
              <mxPoint x="1207" y="441" />
            </Array>
          </mxGeometry>
        </mxCell>
        <mxCell id="CmKihCirjOIbLul7nWhH-11" value="Call SAP API to get additonal delete part list detail , append to  -D list" style="verticalAlign=bottom;endArrow=block;edgeStyle=elbowEdgeStyle;elbow=vertical;curved=0;rounded=0;" edge="1" parent="1" source="CmKihCirjOIbLul7nWhH-1" target="CmKihCirjOIbLul7nWhH-2">
          <mxGeometry relative="1" as="geometry">
            <Array as="points">
              <mxPoint x="1375" y="588" />
            </Array>
          </mxGeometry>
        </mxCell>
        <mxCell id="CmKihCirjOIbLul7nWhH-12" value="Create package-A file" style="curved=1;rounded=0;" edge="1" parent="1" source="CmKihCirjOIbLul7nWhH-3" target="CmKihCirjOIbLul7nWhH-3">
          <mxGeometry relative="1" as="geometry">
            <Array as="points">
              <mxPoint x="1824" y="717" />
              <mxPoint x="1824" y="747" />
            </Array>
          </mxGeometry>
        </mxCell>
        <mxCell id="CmKihCirjOIbLul7nWhH-13" value="Create package-D file" style="curved=1;rounded=0;" edge="1" parent="1" source="CmKihCirjOIbLul7nWhH-3" target="CmKihCirjOIbLul7nWhH-3">
          <mxGeometry relative="1" as="geometry">
            <Array as="points">
              <mxPoint x="1824" y="799" />
              <mxPoint x="1824" y="829" />
            </Array>
          </mxGeometry>
        </mxCell>
        <mxCell id="CmKihCirjOIbLul7nWhH-14" value="Save files to EDIProcessed Folder" style="curved=1;rounded=0;" edge="1" parent="1" source="CmKihCirjOIbLul7nWhH-3" target="CmKihCirjOIbLul7nWhH-3">
          <mxGeometry relative="1" as="geometry">
            <Array as="points">
              <mxPoint x="1824" y="881" />
              <mxPoint x="1824" y="911" />
            </Array>
          </mxGeometry>
        </mxCell>
        <mxCell id="CmKihCirjOIbLul7nWhH-15" value="Update SpeedProcessing Tables IsSubmitted flag to 1" style="curved=1;rounded=0;" edge="1" parent="1" source="CmKihCirjOIbLul7nWhH-1" target="CmKihCirjOIbLul7nWhH-1">
          <mxGeometry relative="1" as="geometry">
            <Array as="points">
              <mxPoint x="1207" y="1003" />
              <mxPoint x="1207" y="1033" />
            </Array>
          </mxGeometry>
        </mxCell>
        <mxCell id="CmKihCirjOIbLul7nWhH-16" value="Create result pair of Addlist and Dellist by TSDR, ProductCode" style="fillColor=#ffff88;strokeColor=#9E916F;" vertex="1" parent="1">
          <mxGeometry x="930" y="461" width="455" height="49" as="geometry" />
        </mxCell>
        <mxCell id="Fb_lkr0arA2H1cVBN2Jg-1" value="&lt;h1&gt;RDD SAP Backend Job&lt;/h1&gt;" style="text;html=1;strokeColor=none;fillColor=none;spacing=5;spacingTop=-20;whiteSpace=wrap;overflow=hidden;rounded=0;" vertex="1" parent="1">
          <mxGeometry x="1340" y="30" width="520" height="60" as="geometry" />
        </mxCell>
      </root>
    </mxGraphModel>
  </diagram>
</mxfile>
